<svg xmlns="http://www.w3.org/2000/svg" width="32" height="32" viewBox="0 0 32 32">
    <g fill="#444" fill-rule="evenodd">
        <path d="M16.019 19.088a3.073 3.073 0 0 0 3.077-3.07 3.073 3.073 0 0 0-3.077-3.07 3.073 3.073 0 0 0-3.077 3.07 3.073 3.073 0 0 0 3.077 3.07M19.562 12.874h2.163c.247 0 .448-.2.448-.446v-2.159a.447.447 0 0 0-.448-.446h-2.163c-.247 0-.448.2-.448.446v2.159c0 .246.2.446.448.446"/>
        <path d="M24 22.102A1.9 1.9 0 0 1 22.098 24H9.902A1.9 1.9 0 0 1 8 22.102V9.897A1.9 1.9 0 0 1 9.902 8h12.196C23.149 8 24 8.849 24 9.897v12.205zM16 0C7.163 0 0 7.163 0 16c0 8.836 7.163 16 16 16s16-7.164 16-16c0-8.837-7.163-16-16-16z"/>
        <path d="M20.886 16.018c0 2.677-2.183 4.856-4.867 4.856s-4.867-2.179-4.867-4.856c0-.444.06-.875.173-1.284H9.828v6.958c0 .247.2.447.447.447h11.487c.248 0 .448-.2.448-.447v-6.958h-1.497c.113.41.173.84.173 1.284"/>
    </g>
</svg>
